<svg xmlns="http://www.w3.org/2000/svg" version="1.1" xmlns:xlink="http://www.w3.org/1999/xlink" xmlns:svgjs="http://svgjs.dev/svgjs" width="1000" height="1000" viewBox="0 0 1000 1000"><rect width="1000" height="1000" fill="#ffffff"></rect><g transform="matrix(0.7,0,0,0.7,150.44509513115526,225.12275483304944)"><svg viewBox="0 0 314 247" data-background-color="#ffffff" preserveAspectRatio="xMidYMid meet" height="786" width="1000" xmlns="http://www.w3.org/2000/svg" xmlns:xlink="http://www.w3.org/1999/xlink"><g id="tight-bounds" transform="matrix(1,0,0,1,-0.19965675717494946,-0.10000080654887711)"><svg viewBox="0 0 314.3993137160074 247.2" height="247.2" width="314.3993137160074"><g><svg viewBox="0 0 395.52 310.98205286897223" height="247.2" width="314.3993137160074"><g transform="matrix(1,0,0,1,0,231.38598023951693)"><svg viewBox="0 0 395.52 79.59607262945528" height="79.59607262945528" width="395.52"><g><svg viewBox="0 0 395.52 79.59607262945528" height="79.59607262945528" width="395.52"><g><svg viewBox="0 0 395.52 79.59607262945528" height="79.59607262945528" width="395.52"><g transform="matrix(1,0,0,1,0,0)"><svg width="395.52" viewBox="5.050000190734863 -41.5 297.3700256347656 59.849998474121094" height="79.59607262945528" data-palette-color="#50a060"><path d="M37.65-33.7L37.65-33.7Q37.8-32.85 37.88-32.52 37.95-32.2 37.95-31.65L37.95-31.65Q37.95-30 37.23-28.58 36.5-27.15 35.25-26.55L35.25-26.55Q34.25-27.9 32.8-28.88 31.35-29.85 29.63-30.48 27.9-31.1 26.05-31.4 24.2-31.7 22.45-31.7L22.45-31.7Q20.7-31.7 19.18-31.43 17.65-31.15 16.48-30.68 15.3-30.2 14.63-29.5 13.95-28.8 13.95-27.9L13.95-27.9Q14.1-26.8 15.3-25.68 16.5-24.55 18.25-23.48 20-22.4 22.13-21.35 24.25-20.3 26.3-19.35L26.3-19.35Q28.85-18.15 30.7-17.13 32.55-16.1 33.75-14.88 34.95-13.65 35.55-12.1 36.15-10.55 36.15-8.35L36.15-8.35Q36.15-5.8 35.3-3.58 34.45-1.35 32.83 0.3 31.2 1.95 28.9 2.88 26.6 3.8 23.75 3.8L23.75 3.8Q20.95 3.8 17.7 2.95 14.45 2.1 11.63 0.63 8.8-0.85 6.93-2.78 5.05-4.7 5.05-6.85L5.05-6.85Q5.05-7.85 5.63-9.4 6.2-10.95 7.7-12.65L7.7-12.65Q7.85-11.15 9.33-9.1 10.8-7.05 13.75-5.3L13.75-5.3Q16.5-3.7 19.43-2.98 22.35-2.25 24.9-2.25L24.9-2.25Q27.7-2.25 29.45-2.95 31.2-3.65 32.2-4.63 33.2-5.6 33.6-6.6 34-7.6 34.05-8.2L34.05-8.2Q34-9.2 33.13-10.13 32.25-11.05 30.78-11.93 29.3-12.8 27.35-13.7 25.4-14.6 23.3-15.5L23.3-15.5Q20.15-16.9 17.88-18.13 15.6-19.35 14.13-20.63 12.65-21.9 11.98-23.3 11.3-24.7 11.3-26.5L11.3-26.5Q11.3-29.3 13-31.8 14.7-34.3 17.9-35.6L17.9-35.6Q19.5-36.3 21.33-36.6 23.15-36.9 24.9-36.9L24.9-36.9Q28.2-36.9 31.35-36 34.5-35.1 37.65-33.7ZM39.45-0.85L39.45-0.85Q39.45-2.6 39.8-4.98 40.15-7.35 40.82-10.05 41.5-12.75 42.42-15.7 43.35-18.65 44.5-21.6L44.5-21.6Q45.5-24.25 46.82-26.95 48.15-29.65 49.7-32.25 51.25-34.85 52.92-37.2 54.6-39.55 56.3-41.5L56.3-41.5Q57.1-41.5 58.02-41.3 58.95-41.1 59.82-40.78 60.7-40.45 61.42-40 62.15-39.55 62.6-39.1L62.6-39.1Q58.85-35.25 55.85-31.33 52.85-27.4 51.1-23.95L51.1-23.95Q50.15-22.05 49.37-20.4 48.6-18.75 47.95-17.13 47.3-15.5 46.77-13.88 46.25-12.25 45.8-10.45L45.8-10.45Q55.4-22.7 60.05-22.7L60.05-22.7Q61.35-22.7 62.85-21.85 64.35-21 65.5-19.55L65.5-19.55Q63.95-17.85 62.3-15.45 60.65-13.05 59.27-10.63 57.9-8.2 57.02-6.13 56.15-4.05 56.15-3.05L56.15-3.05Q56.15-2.55 56.3-2.38 56.45-2.2 56.95-2.2L56.95-2.2Q57.7-2.2 58.15-2.4 58.6-2.6 58.7-2.6L58.7-2.6Q58.95-2.2 59-2.05 59.05-1.9 59.05-1.8L59.05-1.8Q59.05-1.6 58.45-1.23 57.85-0.85 57.02-0.48 56.2-0.1 55.4 0.2 54.6 0.5 54.2 0.5L54.2 0.5Q53.7 0.5 53.2 0.23 52.7-0.05 52.32-0.5 51.95-0.95 51.72-1.5 51.5-2.05 51.5-2.65L51.5-2.65Q51.5-3.4 51.92-4.88 52.35-6.35 53.1-8.33 53.85-10.3 54.9-12.65 55.95-15 57.15-17.45L57.15-17.45Q57.15-17.65 56.95-17.65L56.95-17.65Q56.8-17.65 56.17-17.25 55.55-16.85 55-16.45L55-16.45Q53.2-15.1 51.37-13.13 49.55-11.15 47.82-8.8 46.1-6.45 44.57-3.83 43.05-1.2 41.95 1.45L41.95 1.45Q41.8 1.8 41.5 2.1 41.2 2.4 41 2.4L41 2.4Q40.85 2.4 40.57 2.05 40.3 1.7 40.07 1.18 39.85 0.65 39.65 0.1 39.45-0.45 39.45-0.85ZM71.25 1.75L71.25 1.75Q68.4 1.45 66.7-0.75 65-2.95 65-6.35L65-6.35Q65-8.35 65.59-10.5 66.2-12.65 67.3-14.68 68.4-16.7 69.9-18.5 71.4-20.3 73.15-21.6L73.15-21.6Q75.9-23.65 78.3-23.65L78.3-23.65Q79.9-22.8 81.45-20.1L81.45-20.1Q81.7-20.1 81.9-20.13 82.09-20.15 82.34-20.15L82.34-20.15Q85-20.15 85-15.45L85-15.45Q85-12.3 83.97-9.47 82.95-6.65 81.12-4.35 79.3-2.05 76.77-0.48 74.25 1.1 71.25 1.75ZM73.8-14L73.8-14Q72.95-12.85 72.2-11.5 71.45-10.15 70.9-8.78 70.34-7.4 70.05-6.13 69.75-4.85 69.75-3.85L69.75-3.85Q69.75-2.65 70.15-1.55 70.55-0.45 71.05-0.3L71.05-0.3Q73.3-0.8 75.17-2.18 77.05-3.55 78.42-5.6 79.8-7.65 80.57-10.25 81.34-12.85 81.34-15.8L81.34-15.8Q81.34-17.1 81.2-17.85 81.05-18.6 80.7-19.15L80.7-19.15Q78.5-18.5 76.77-17.05 75.05-15.6 73.8-14ZM83.74 16.55L83.74 16.55Q83.04 16.35 82.94 15.05L82.94 15.05Q82.74 14.4 82.67 13.5 82.59 12.6 82.59 11.45L82.59 11.45Q82.59 10.4 82.94 8.58 83.29 6.75 83.92 4.45 84.54 2.15 85.44-0.53 86.34-3.2 87.44-5.95L87.44-5.95Q88.79-9.4 89.79-11.93 90.79-14.45 91.47-16.3 92.14-18.15 92.57-19.35 92.99-20.55 93.24-21.4L93.24-21.4Q93.44-22 93.84-22.85 94.24-23.7 94.77-24.58 95.29-25.45 95.84-26.23 96.39-27 96.84-27.4L96.84-27.4Q98.59-27.15 100.14-26.5 101.69-25.85 102.04-25.25L102.04-25.25Q101.34-24.6 100.44-23.23 99.54-21.85 98.69-20.23 97.84-18.6 97.14-16.9 96.44-15.2 96.09-13.9L96.09-13.9Q96.59-14.75 97.39-15.75 98.19-16.75 99.84-18.5L99.84-18.5Q101.69-20.4 103.32-21.43 104.94-22.45 106.14-22.45L106.14-22.45Q108.04-22.45 109.27-21.4 110.49-20.35 110.49-18.7L110.49-18.7Q110.49-15.1 109.29-11.58 108.09-8.05 105.84-5.2L105.84-5.2Q104.99-4.1 103.84-3.1 102.69-2.1 101.44-1.33 100.19-0.55 98.99-0.1 97.79 0.35 96.84 0.35L96.84 0.35Q95.94 0.35 95.27-0.03 94.59-0.4 94.34-0.95L94.34-0.95Q96.29-2.1 98.14-4.15 99.99-6.2 101.57-8.88 103.14-11.55 104.32-14.65 105.49-17.75 106.09-20.95L106.09-20.95Q104.19-19.95 102.67-18.78 101.14-17.6 99.64-15.7L99.64-15.7Q97.84-13.5 96.79-12.15 95.74-10.8 95.07-9.85 94.39-8.9 93.97-8.08 93.54-7.25 93.04-6.05L93.04-6.05Q92.34-4.45 91.42-1.83 90.49 0.8 89.52 4.05 88.54 7.3 87.57 10.98 86.59 14.65 85.69 18.3L85.69 18.3Q85.14 18.2 84.74 17.5L84.74 17.5Q84.34 17.05 84.17 16.85 83.99 16.65 83.74 16.55ZM108.64 16.55L108.64 16.55Q107.94 16.35 107.84 15.05L107.84 15.05Q107.64 14.4 107.57 13.5 107.49 12.6 107.49 11.45L107.49 11.45Q107.49 10.4 107.84 8.58 108.19 6.75 108.82 4.45 109.44 2.15 110.34-0.53 111.24-3.2 112.34-5.95L112.34-5.95Q113.69-9.4 114.69-11.93 115.69-14.45 116.37-16.3 117.04-18.15 117.47-19.35 117.89-20.55 118.14-21.4L118.14-21.4Q118.34-22 118.74-22.85 119.14-23.7 119.67-24.58 120.19-25.45 120.74-26.23 121.29-27 121.74-27.4L121.74-27.4Q123.49-27.15 125.04-26.5 126.59-25.85 126.94-25.25L126.94-25.25Q126.24-24.6 125.34-23.23 124.44-21.85 123.59-20.23 122.74-18.6 122.04-16.9 121.34-15.2 120.99-13.9L120.99-13.9Q121.49-14.75 122.29-15.75 123.09-16.75 124.74-18.5L124.74-18.5Q126.59-20.4 128.22-21.43 129.84-22.45 131.04-22.45L131.04-22.45Q132.94-22.45 134.17-21.4 135.39-20.35 135.39-18.7L135.39-18.7Q135.39-15.1 134.19-11.58 132.99-8.05 130.74-5.2L130.74-5.2Q129.89-4.1 128.74-3.1 127.59-2.1 126.34-1.33 125.09-0.55 123.89-0.1 122.69 0.35 121.74 0.35L121.74 0.35Q120.84 0.35 120.17-0.03 119.49-0.4 119.24-0.95L119.24-0.95Q121.19-2.1 123.04-4.15 124.89-6.2 126.47-8.88 128.04-11.55 129.22-14.65 130.39-17.75 130.99-20.95L130.99-20.95Q129.09-19.95 127.57-18.78 126.04-17.6 124.54-15.7L124.54-15.7Q122.74-13.5 121.69-12.15 120.64-10.8 119.97-9.85 119.29-8.9 118.87-8.08 118.44-7.25 117.94-6.05L117.94-6.05Q117.24-4.45 116.32-1.83 115.39 0.8 114.42 4.05 113.44 7.3 112.47 10.98 111.49 14.65 110.59 18.3L110.59 18.3Q110.04 18.2 109.64 17.5L109.64 17.5Q109.24 17.05 109.07 16.85 108.89 16.65 108.64 16.55ZM137.24-3.35L137.24-3.35Q137.24-3.8 137.31-4.48 137.39-5.15 137.59-6.28 137.79-7.4 138.11-9 138.44-10.6 138.94-12.85L138.94-12.85Q139.04-13.35 139.39-14.45 139.74-15.55 140.31-16.78 140.89-18 141.71-19.15 142.54-20.3 143.69-20.85L143.69-20.85Q144.54-20.65 145.94-19.83 147.34-19 148.34-17.55L148.34-17.55Q147.19-16.25 146.41-14.95 145.64-13.65 145.01-12.25 144.39-10.85 143.86-9.35 143.34-7.85 142.69-6.2L142.69-6.2Q142.14-4.8 141.69-3.33 141.24-1.85 141.19-0.75L141.19-0.75Q141.19 0.15 141.16 0.53 141.14 0.9 140.89 0.9L140.89 0.9Q140.69 0.9 140.09 0.65 139.49 0.4 138.86-0.13 138.24-0.65 137.74-1.45 137.24-2.25 137.24-3.35ZM146.79-25.05L146.79-25.05Q146.79-25.35 146.94-25.95L146.94-25.95Q146.69-26.2 146.51-26.7 146.34-27.2 146.34-27.6L146.34-27.6Q146.34-28.05 146.46-28.83 146.59-29.6 146.79-30.5 146.99-31.4 147.29-32.38 147.59-33.35 147.89-34.15L147.89-34.15Q148.49-34.15 149.36-33.83 150.24-33.5 151.14-32.98 152.04-32.45 152.79-31.83 153.54-31.2 153.94-30.65L153.94-30.65Q153.39-30.1 152.49-29.13 151.59-28.15 150.74-27.08 149.89-26 149.19-25.05 148.49-24.1 148.29-23.7L148.29-23.7Q147.69-23.8 147.24-24.23 146.79-24.65 146.79-25.05ZM157.09-24.25L157.09-24.25Q158.39-23.85 159.54-22.48 160.69-21.1 161.24-19.45L161.24-19.45Q160.69-18.1 159.54-16.2 158.39-14.3 157.24-12.33 156.09-10.35 155.16-8.58 154.24-6.8 154.09-5.65L154.09-5.65Q154.89-6.5 155.86-7.63 156.84-8.75 157.76-9.88 158.69-11 159.49-11.93 160.29-12.85 160.74-13.3L160.74-13.3Q161.69-14.3 162.99-15.63 164.29-16.95 165.71-18.13 167.14-19.3 168.59-20.13 170.04-20.95 171.24-20.95L171.24-20.95Q172.54-20.95 173.41-20.08 174.29-19.2 174.79-18.25L174.79-18.25Q174.79-18.15 174.41-17.98 174.04-17.8 173.34-17L173.34-17Q172.64-16.1 171.76-14.53 170.89-12.95 170.06-11.13 169.24-9.3 168.69-7.4 168.14-5.5 168.14-3.95L168.14-3.95Q168.14-2.7 168.46-2.35 168.79-2 169.39-2L169.39-2Q169.94-2 170.54-2.25 171.14-2.5 171.49-2.5L171.49-2.5Q171.69-2.4 171.81-2.08 171.94-1.75 171.94-1.5L171.94-1.5Q171.54-1.15 170.99-0.8 170.44-0.45 169.84-0.15 169.24 0.15 168.66 0.35 168.09 0.55 167.64 0.55L167.64 0.55Q166.19 0.55 165.26 0.13 164.34-0.3 163.81-1 163.29-1.7 163.09-2.68 162.89-3.65 162.89-4.75L162.89-4.75Q162.89-5.35 162.99-6.1 163.09-6.85 163.39-7.88 163.69-8.9 164.24-10.33 164.79-11.75 165.64-13.75L165.64-13.75Q165.54-13.75 164.29-13.05 163.04-12.35 161.59-10.9L161.59-10.9Q159.24-8.65 157.36-6.45 155.49-4.25 153.54-1.55L153.54-1.55Q152.44 0 151.61 1.07 150.79 2.15 150.19 2.5L150.19 2.5Q149.14 1.9 148.64 0.83 148.14-0.25 147.89-1.4L147.89-1.4Q147.89-2.35 148.16-3.8 148.44-5.25 148.91-7.03 149.39-8.8 150.09-10.75 150.79-12.7 151.64-14.65L151.64-14.65Q153.54-19.05 155.11-21.55 156.69-24.05 157.09-24.25ZM165.88 14.9L165.88 14.9Q165.88 14.6 166.08 14.35 166.28 14.1 166.53 13.85L166.53 13.85Q167.13 14.4 167.56 14.7 167.98 15 168.36 15.2 168.73 15.4 169.13 15.45 169.53 15.5 170.08 15.5L170.08 15.5Q172.68 15.5 175.03 14.13 177.38 12.75 179.46 10.15 181.53 7.55 183.23 3.8 184.93 0.05 186.23-4.7L186.23-4.7Q185.63-4.1 184.76-3.38 183.88-2.65 182.93-2 181.98-1.35 181.06-0.8 180.13-0.25 179.48 0L179.48 0Q178.63-0.15 177.91-0.73 177.18-1.3 176.63-2.15 176.08-3 175.78-4.08 175.48-5.15 175.48-6.35L175.48-6.35Q175.48-8.3 176.21-10.35 176.93-12.4 178.13-14.38 179.33-16.35 180.96-18.1 182.58-19.85 184.41-21.15 186.23-22.45 188.11-23.23 189.98-24 191.78-24L191.78-24Q193.53-24 194.41-23.28 195.28-22.55 195.68-20.8L195.68-20.8Q195.13-21.1 194.28-21.1L194.28-21.1Q193.08-21.1 191.51-20.15 189.93-19.2 188.31-17.68 186.68-16.15 185.08-14.18 183.48-12.2 182.26-10.15 181.03-8.1 180.26-6.15 179.48-4.2 179.48-2.65L179.48-2.65Q179.48-2.3 179.53-2.23 179.58-2.15 179.68-2.15L179.68-2.15Q180.13-2.15 180.91-2.65 181.68-3.15 182.66-3.93 183.63-4.7 184.68-5.73 185.73-6.75 186.68-7.8L186.68-7.8Q188.83-10.2 190.61-13.18 192.38-16.15 193.43-18.95L193.43-18.95Q194.78-18.85 195.83-18.5 196.88-18.15 197.28-17.75L197.28-17.75Q195.58-13.85 194.56-11.2 193.53-8.55 192.78-6.5L192.78-6.5Q191.43-2.9 190.26 0.08 189.08 3.05 187.86 5.58 186.63 8.1 185.21 10.28 183.78 12.45 181.98 14.45L181.98 14.45Q181.13 15.4 180.06 16.13 178.98 16.85 177.86 17.35 176.73 17.85 175.66 18.1 174.58 18.35 173.68 18.35L173.68 18.35Q172.48 18.35 171.23 18.07 169.98 17.8 168.91 17.32 167.83 16.85 167.03 16.23 166.23 15.6 165.88 14.9ZM212.63-9.8L212.63-9.8Q212.63-13.3 213.45-16.68 214.28-20.05 215.78-23.08 217.28-26.1 219.35-28.63 221.43-31.15 223.9-33 226.38-34.85 229.18-35.88 231.98-36.9 234.93-36.9L234.93-36.9Q238.38-36.9 240.3-35.45 242.23-34 242.23-31.4L242.23-31.4Q242.23-30.4 241.95-29.35 241.68-28.3 241.15-27.28 240.63-26.25 239.93-25.3 239.23-24.35 238.38-23.65L238.38-23.65Q237.08-23.85 236.13-24.83 235.18-25.8 234.93-27.1L234.93-27.1Q236.68-28.55 237.7-30.13 238.73-31.7 238.73-33L238.73-33Q238.73-35.2 235.98-35.2L235.98-35.2Q234.83-35.2 233.6-34.73 232.38-34.25 231.13-33.4 229.88-32.55 228.7-31.35 227.53-30.15 226.53-28.7L226.53-28.7Q219.58-18.7 219.58-8.25L219.58-8.25Q219.58-4.55 220.73-2.3 221.88-0.05 223.78 0.35L223.78 0.35Q225.93-0.15 229.23-2.4 232.53-4.65 236.43-8.25L236.43-8.25Q236.93-7.75 237.03-7.2L237.03-7.2Q235.58-5.3 234.03-3.55 232.48-1.8 230.95-0.35 229.43 1.1 227.95 2.2 226.48 3.3 225.23 3.9L225.23 3.9Q219.03 3.8 215.83 0.35 212.63-3.1 212.63-9.8ZM257.83-20.2L257.83-20.2Q258.33-20.2 259-20.03 259.68-19.85 260.23-19.58 260.78-19.3 261.15-19 261.53-18.7 261.53-18.45L261.53-18.45Q260.53-16.35 259.68-14.23 258.83-12.1 258.23-10.15 257.63-8.2 257.3-6.5 256.98-4.8 256.98-3.55L256.98-3.55Q256.98-2.15 257.28-1.23 257.58-0.3 258.28 0.1L258.28 0.1Q257.68 0.5 256.73 0.75 255.78 1 255.03 1L255.03 1Q252.33 1 252.33-2.7L252.33-2.7Q252.33-5.55 254.23-10.5L254.23-10.5Q253.23-8.2 251.93-6.18 250.63-4.15 249.28-2.6 247.93-1.05 246.55-0.08 245.18 0.9 244.03 1.1L244.03 1.1Q242.18 1 241.03-0.68 239.88-2.35 239.88-4.95L239.88-4.95Q239.88-7.75 241.08-10.85 242.28-13.95 244.15-16.6 246.03-19.25 248.23-21.03 250.43-22.8 252.48-22.9L252.48-22.9Q252.98-22.75 253.6-22.3 254.23-21.85 254.8-21.25 255.38-20.65 255.78-20.03 256.18-19.4 256.23-18.95L256.23-18.95Q254.23-18.65 252.1-17 249.98-15.35 248.25-13.03 246.53-10.7 245.43-8.05 244.33-5.4 244.33-3.1L244.33-3.1Q244.33-2.15 245.03-1.9L245.03-1.9Q246.48-2.2 248.38-4.38 250.28-6.55 252.98-11.1L252.98-11.1Q253.48-12 254.1-13.1 254.73-14.2 255.38-15.4 256.03-16.6 256.65-17.82 257.28-19.05 257.83-20.2ZM262.87-1L262.87-1Q263.12-2.45 263.75-4.83 264.37-7.2 265.22-9.88 266.07-12.55 267.02-15.25 267.97-17.95 268.87-20.1L268.87-20.1Q269.52-21.65 270.02-22.53 270.52-23.4 271.12-24L271.12-24Q271.82-23.9 272.57-23.65 273.32-23.4 274.02-23.05 274.72-22.7 275.27-22.33 275.82-21.95 276.12-21.6L276.12-21.6Q274.77-20 273.75-17.95 272.72-15.9 271.67-12.7L271.67-12.7Q274.37-15.1 276.45-17.3 278.52-19.5 280.32-22.2L280.32-22.2Q280.62-22.45 281.37-22.45L281.37-22.45Q282.07-22.45 282.72-22.23 283.37-22 283.62-21.6L283.62-21.6Q282.72-19.2 282.72-16.85L282.72-16.85Q282.72-14.65 283.37-13.55L283.37-13.55Q283.32-13.25 282.7-12.4 282.07-11.55 281.32-10.8L281.32-10.8Q279.97-11.5 278.92-12.73 277.87-13.95 277.37-15.4L277.37-15.4Q275.02-13.75 273.37-12.18 271.72-10.6 270.55-8.68 269.37-6.75 268.55-4.25 267.72-1.75 266.97 1.7L266.97 1.7Q266.52 1.65 265.9 1.38 265.27 1.1 264.65 0.7 264.02 0.3 263.52-0.15 263.02-0.6 262.87-1ZM290.02-19.15L287.17-19.15Q286.92-19.45 286.72-20.43 286.52-21.4 286.52-22.1L286.52-22.1Q287.82-22 289.02-21.93 290.22-21.85 291.22-21.8L291.22-21.8Q291.97-23.3 292.85-24.78 293.72-26.25 294.55-27.48 295.37-28.7 296.1-29.55 296.82-30.4 297.22-30.65L297.22-30.65Q297.72-30.65 298.5-30.48 299.27-30.3 300.07-30.03 300.87-29.75 301.52-29.45 302.17-29.15 302.42-28.85L302.42-28.85Q300.92-26.95 299.85-25.33 298.77-23.7 297.52-21.6L297.52-21.6Q298.52-21.6 299.55-21.65 300.57-21.7 301.62-21.8L301.62-21.8Q301.87-21.55 302.02-21.18 302.17-20.8 302.17-20.4L302.17-20.4Q299.72-19.5 296.22-19.4L296.22-19.4Q294.97-17 294-14.63 293.02-12.25 292.35-10.05 291.67-7.85 291.3-5.9 290.92-3.95 290.92-2.4L290.92-2.4Q290.92-0.2 292.57 0.05L292.57 0.05Q294.07-0.15 295.42-0.7 296.77-1.25 297.82-2.1L297.82-2.1Q298.12-1.65 298.17-1.35L298.17-1.35Q297.87-0.9 297.14-0.3 296.42 0.3 295.57 0.88 294.72 1.45 293.92 1.85 293.12 2.25 292.72 2.3L292.72 2.3Q291.47 2.25 290.22 1.75 288.97 1.25 287.94 0.5 286.92-0.25 286.27-1.18 285.62-2.1 285.62-3L285.62-3Q285.62-4.2 285.94-6.03 286.27-7.85 286.87-10 287.47-12.15 288.27-14.5 289.07-16.85 290.02-19.15L290.02-19.15Z" opacity="1" transform="matrix(1,0,0,1,0,0)" fill="#50a060" class="undefined-text-0" data-fill-palette-color="primary" id="text-0"></path></svg></g></svg></g></svg></g></svg></g><g transform="matrix(1,0,0,1,100.85773232231281,0)"><svg viewBox="0 0 193.80453535537436 193.80453535537436" height="193.80453535537436" width="193.80453535537436"><g><svg></svg></g><g id="icon-0"><svg viewBox="0 0 193.80453535537436 193.80453535537436" height="193.80453535537436" width="193.80453535537436"><g><path d="M0 96.902c0-53.518 43.385-96.902 96.902-96.902 53.518 0 96.902 43.385 96.903 96.902 0 53.518-43.385 96.902-96.903 96.903-53.518 0-96.902-43.385-96.902-96.903zM96.902 186.626c49.553 0 89.724-40.171 89.724-89.724 0-49.553-40.171-89.724-89.724-89.724-49.553 0-89.724 40.171-89.724 89.724 0 49.553 40.171 89.724 89.724 89.724z" data-fill-palette-color="tertiary" fill="#50a060" stroke="transparent"></path></g><g transform="matrix(1,0,0,1,40.82510372760894,46.66220557114275)"><svg viewBox="0 0 112.15432790015647 100.48012421308886" height="100.48012421308886" width="112.15432790015647"><g><svg xmlns="http://www.w3.org/2000/svg" xmlns:xlink="http://www.w3.org/1999/xlink" version="1.1" x="0" y="0" viewBox="0.9850000143051147 6.086999893188477 98.02999877929688 87.82600402832031" enable-background="new 0 0 100 100" xml:space="preserve" height="100.48012421308886" width="112.15432790015647" class="icon-a-0" data-fill-palette-color="accent" id="a-0"><path d="M50 6.087C22.93 6.087 0.985 25.748 0.985 50 0.985 74.253 22.93 93.913 50 93.913c27.07 0 49.015-19.66 49.015-43.913C99.015 25.748 77.07 6.087 50 6.087zM74.833 69.08c-32.125 19.166-60.851-0.667-66.379-6.454 14.492 11.331 37.288 14.851 56.379 6.787C76.146 64.037 82.172 56.755 85 47.079c2.829-10.751-0.536-20.965-11.143-27.954-9.899-6.451-22.628-8.601-35.355-5.376-9.899 3.226-17.678 9.139-20.506 17.74-3.535 9.139 2.829 18.277 13.435 23.115 10.606 3.763 25.456 2.15 31.113-6.45 3.535-5.914 2.121-13.44-5.657-17.203-3.535-1.613-8.303-1.955-10.86 0.174-3.521 2.932 1.89 0.361 5.874 2.206 2.517 1.165 5.6 3.165 4.986 8.372-0.772 6.559-11.313 9.677-18.385 7.526-7.778-2.688-11.314-8.601-10.606-14.515 1.414-6.451 7.778-11.289 15.557-12.902 13.435-2.688 25.455 4.301 29.698 13.978 3.535 9.138-2.121 17.739-12.021 23.115-8.484 4.301-18.385 5.376-27.577 2.688-13.435-3.763-22.627-12.901-23.334-24.19C9.511 22.888 22.238 12.137 39.916 8.374c19.799-3.225 39.598 4.301 48.083 18.277C95.777 41.166 91.609 59.071 74.833 69.08z" fill="#50a060" data-fill-palette-color="accent"></path></svg></g></svg></g></svg></g></svg></g><g></g></svg></g><defs></defs></svg><rect width="314.3993137160074" height="247.2" fill="none" stroke="none" visibility="hidden"></rect></g></svg></g></svg>